# xmcd
#
# Track frame offsets:
# 150
# 17874
# 25824
# 49569
# 74880
# 91150
# 108932
# 126869
# 142943
# 162553
# 179458
# 198147
# 215477
# 237386
# 256842
# 280409
# 305275
# 318725
# 341993
#
# Disc length: 4727 seconds
#
#
# Revision: 0
# Processed by: cddbd v1.5.2PL0 Copyright (c) Steve Scherf et al.
# Submitted via: FreeRIP 2.96 
#
DISCID=1d127513
DTITLE=Bram Stoker - Dracula  CD2v2
DYEAR=2004
DGENRE=Speech
TTITLE0=20 - Professor, was machen wir hier...
TTITLE1=21 - Wir mussten noch ein wenig suchen...
TTITLE2=22 - Oh, wie frisch und rein...
TTITLE3=23 - 29.September - Mittags...
TTITLE4=24 - Ah, wie ich sehe...
TTITLE5=25 - Ich halte es für das Beste...
TTITLE6=26 - Mister Holmwood, ich hatte die Ehre
TTITLE7=27 - Die Lampen an...
TTITLE8=28 - Mina, wach' doch auf...
TTITLE9=29 - Mein Tag war erfolgreich...
TTITLE10=30 - Blut, überall Blut...
TTITLE11=31 - Arthur, mach' schon...
TTITLE12=32 - Ruhe! Wenn du einen einzigen Laut...
TTITLE13=33 - Und Sie haben wirklich den Schlüssel vergessen?
TTITLE14=34 - Wo befinden Sie sich jetzt...
TTITLE15=35 - Was heisst das?
TTITLE16=36 - Was machen Sie da...
TTITLE17=37 - Tun Sie es nicht...
TTITLE18=38 - Sieben Jahre ist es nun her...
EXTD=Hörspiel\nDracula                 Felix von Manteuffel\nJonathan Harker   Konstantin Graudus\nVan Helsing          Gerd Baltus\nDr. Seward            Andreas Fröhlich\nMina Murray          Céline Fontages\nArthus Holmwood  Michael Lott\nLucy Westenr
EXTD=a      Anna Carlson
EXTT0=
EXTT1=
EXTT2=
EXTT3=
EXTT4=
EXTT5=
EXTT6=
EXTT7=
EXTT8=
EXTT9=
EXTT10=
EXTT11=
EXTT12=
EXTT13=
EXTT14=
EXTT15=
EXTT16=
EXTT17=
EXTT18=
PLAYORDER=
